<svg xmlns="http://www.w3.org/2000/svg" width="675" height="188" fill="none" viewBox="0 0 675 188"><path fill="#00EFD1" d="M124.815 5.42395C147.437 5.42395 165.585 44.9261 165.585 93.9633C165.585 143.001 147.055 182.503 124.433 182.503L108.884 182.555C110.733 180.868 112.498 176.886 114.495 175.676C117.554 173.811 122.762 173.853 125.491 170.584C127.812 167.802 127.073 162.553 129.09 158.885C130.866 155.653 135.723 153.604 137.227 149.769C138.589 146.291 136.467 141.445 137.572 137.536C138.599 133.906 142.963 130.925 143.744 126.974C144.483 123.244 141.601 118.817 142.099 114.841C142.576 111.048 146.473 107.485 146.714 103.509C146.945 99.6738 143.519 95.6608 143.519 91.6896C143.519 87.7184 146.945 83.7001 146.714 79.8651C146.473 75.8835 142.576 72.3209 142.099 68.5227C141.596 64.5515 144.477 60.1245 143.744 56.3996C142.963 52.4441 138.599 49.4684 137.572 45.8377C136.467 41.9242 138.589 37.0833 137.227 33.6046C135.728 29.7749 130.866 27.7264 129.09 24.494C127.073 20.8214 127.812 15.5772 125.491 12.7952C122.762 9.5261 117.559 7.28904 114.5 5.42919V5.3768L124.815 5.42395Z"/><path fill="#00EFD1" d="M146.714 79.8656C146.945 83.7006 143.519 87.7189 143.519 91.6901C143.519 95.6613 146.945 99.6744 146.714 103.509C146.473 107.486 142.576 111.048 142.099 114.841C141.601 118.818 144.483 123.245 143.744 126.975C142.963 130.925 138.599 133.906 137.572 137.537C136.467 141.445 138.589 146.291 137.227 149.77C135.723 153.605 130.866 155.653 129.09 158.886C127.073 162.553 127.812 167.803 125.491 170.584C122.762 173.854 117.554 173.812 114.495 175.677C112.498 176.887 110.733 180.869 108.884 182.556L90.5627 182.618V182.603C92.454 180.748 94.251 176.913 96.2889 175.677C99.3538 173.812 104.556 173.854 107.286 170.584C109.607 167.803 108.868 162.553 110.885 158.886C112.661 155.653 117.523 153.605 119.021 149.77C120.383 146.291 118.267 141.445 119.372 137.537C120.399 133.906 124.758 130.925 125.538 126.975C126.277 123.245 123.396 118.818 123.893 114.841C124.37 111.048 128.268 107.486 128.509 103.509C128.745 99.6744 125.313 95.6613 125.313 91.6901C125.313 87.7189 128.745 83.7006 128.509 79.8656C128.268 75.884 124.37 72.3215 123.893 68.5232C123.396 64.552 126.277 60.125 125.538 56.4001C124.758 52.4446 120.394 49.4689 119.367 45.8382C118.261 41.9247 120.383 37.0838 119.021 33.6051C117.523 29.7754 112.661 27.727 110.885 24.4945C108.868 20.8219 109.607 15.5777 107.286 12.7958C104.561 9.52662 99.3538 7.28956 96.2942 5.42971V5.29874L114.5 5.37732V5.42971C117.559 7.28956 122.762 9.52662 125.491 12.7958C127.812 15.5777 127.073 20.8219 129.09 24.4945C130.866 27.727 135.728 29.7754 137.227 33.6051C138.589 37.0838 136.467 41.9247 137.572 45.8382C138.599 49.4689 142.963 52.4446 143.744 56.4001C144.477 60.125 141.596 64.552 142.099 68.5232C142.576 72.3215 146.473 75.884 146.714 79.8656Z"/><path fill="#00EFD1" d="M128.509 79.8657C128.745 83.7006 125.313 87.7189 125.313 91.6901C125.313 95.6613 128.745 99.6744 128.509 103.509C128.268 107.486 124.37 111.048 123.893 114.841C123.396 118.818 126.277 123.245 125.538 126.975C124.758 130.925 120.399 133.906 119.372 137.537C118.267 141.445 120.383 146.291 119.021 149.77C117.523 153.605 112.661 155.653 110.885 158.886C108.868 162.553 109.606 167.803 107.286 170.584C104.556 173.854 99.3538 173.812 96.2889 175.677C94.251 176.913 92.454 180.748 90.5627 182.603V182.618L64.7605 182.708V182.702C86.7382 181.115 104.336 141.995 104.336 93.9639C104.336 45.8592 86.6858 6.68707 64.6558 5.22015L64.661 5.16252L96.2942 5.29874V5.42971C99.3538 7.28956 104.561 9.52662 107.286 12.7958C109.606 15.5777 108.868 20.8219 110.885 24.4945C112.661 27.727 117.523 29.7754 119.021 33.6051C120.383 37.0838 118.261 41.9247 119.367 45.8382C120.394 49.4689 124.758 52.4446 125.538 56.4001C126.277 60.125 123.396 64.552 123.893 68.5232C124.37 72.3215 128.268 75.884 128.509 79.8657Z"/><path fill="#00CEB4" d="M64.6558 5.22185C86.6858 6.68877 104.336 45.8609 104.336 93.9655C104.336 141.997 86.7382 181.117 64.7605 182.704C64.2995 182.741 63.8385 182.756 63.3722 182.756C40.7501 182.756 22.4136 143.003 22.4136 93.9655C22.4136 44.9284 40.7501 5.1747 63.3722 5.1747C63.8018 5.1747 64.2314 5.19042 64.6558 5.22185ZM80.5928 93.965C80.5928 70.6252 74.1436 51.7019 63.3722 51.7019C52.6008 51.7019 46.1516 70.6252 46.1516 93.965C46.1516 117.305 52.606 136.228 63.3722 136.228C74.1384 136.228 80.5928 117.305 80.5928 93.965Z"/><path fill="#00ACEA" d="M63.3722 136.226C72.8829 136.226 80.5928 117.305 80.5928 93.9633C80.5928 70.622 72.8829 51.7002 63.3722 51.7002C53.8615 51.7002 46.1516 70.622 46.1516 93.9633C46.1516 117.305 53.8615 136.226 63.3722 136.226Z"/><path fill="#083863" d="M63.3722 141.466C49.7282 141.466 40.9125 122.82 40.9125 93.9633C40.9125 65.1063 49.7282 46.4617 63.3722 46.4617C77.0162 46.4617 85.8319 65.1068 85.8319 93.9633C85.8319 122.82 77.0162 141.466 63.3722 141.466ZM63.3722 56.9397C59.5205 56.9397 56.661 63.2548 55.6106 65.9702C52.8889 73.0031 51.3906 82.9446 51.3906 93.9633C51.3906 104.982 52.8889 114.924 55.6106 121.957C56.6584 124.672 59.5205 130.988 63.3722 130.988C67.2239 130.988 70.0855 124.673 71.1354 121.957C73.856 114.926 75.3538 104.983 75.3538 93.9633C75.3538 82.9436 73.856 73.0015 71.1354 65.9697C70.0855 63.2548 67.2281 56.9397 63.3722 56.9397Z"/><path fill="#083863" d="M158.443 29.1153C149.858 10.4592 137.916 0.315913 124.839 0.315913L64.6835 0.184937H64.661C64.4933 0.184937 64.3278 0.063916 64.1643 0.0801569C63.9024 0.0707267 63.6357 0 63.3727 0C50.2694 0 38.2946 10.2847 29.6534 29.0189C21.6062 46.4648 17.1751 69.5223 17.1751 93.9827C17.1751 118.443 21.6062 141.509 29.6534 158.953C38.2946 177.687 50.2694 188 63.3727 188C63.8846 188 64.3613 187.98 64.8171 187.951L124.433 187.742C137.545 187.742 149.552 177.473 158.241 158.835C166.355 141.429 170.824 118.389 170.824 93.9633C170.825 69.4971 166.427 46.4664 158.443 29.1153ZM132.531 47.2638C133.293 49.9566 134.933 52.058 136.38 53.9116C137.341 55.1438 138.432 56.541 138.604 57.4118C138.741 58.1117 138.282 59.7892 137.913 61.1372C137.262 63.5142 136.525 66.2091 136.901 69.176C137.259 72.0281 138.61 74.3893 139.802 76.4723C140.566 77.8083 141.433 79.3229 141.485 80.1795C141.53 80.9307 140.853 82.5507 140.308 83.8525C139.357 86.1258 138.28 88.7023 138.28 91.6901C138.28 94.6779 139.357 97.2539 140.309 99.5266C140.853 100.826 141.53 102.445 141.485 103.194C141.433 104.05 140.567 105.563 139.803 106.897C138.61 108.979 137.259 111.34 136.9 114.193C136.529 117.16 137.267 119.851 137.914 122.223C138.284 123.574 138.744 125.255 138.604 125.961C138.433 126.832 137.342 128.229 136.381 129.461C134.933 131.316 133.29 133.419 132.531 136.112C131.723 138.971 132.007 141.723 132.263 144.15C132.4 145.46 132.587 147.251 132.349 147.859C132.002 148.744 130.669 149.88 129.38 150.981C127.684 152.427 125.761 154.067 124.501 156.362C123.132 158.851 122.696 161.46 122.312 163.763C122.111 164.964 121.808 166.778 121.47 167.228C120.817 168.009 119.013 168.533 117.266 169.041C115.912 169.404 114.585 169.861 113.295 170.409C113.828 168.808 114.211 167.16 114.441 165.488C114.7 163.938 114.965 162.336 115.477 161.41C115.815 160.795 116.961 159.817 117.973 158.955C120.034 157.198 122.599 155.011 123.899 151.682C125.067 148.7 124.756 145.706 124.482 143.064C124.32 141.502 124.153 139.886 124.414 138.964C124.616 138.245 125.586 137.002 126.441 135.905C128.036 133.857 130.022 131.309 130.678 127.994C131.296 124.87 130.509 121.994 129.815 119.455C129.404 117.951 128.977 116.396 129.091 115.494C129.188 114.724 129.985 113.331 130.689 112.102C131.959 109.886 133.538 107.125 133.738 103.829C133.934 100.644 132.783 97.8973 131.768 95.4737C131.17 94.0466 130.552 92.5708 130.552 91.6891C130.552 90.8073 131.17 89.3315 131.769 87.9007C132.783 85.4761 133.934 82.7277 133.738 79.5482C133.538 76.2434 131.957 73.484 130.69 71.2669C129.986 70.0367 129.188 68.6416 129.091 67.8709C128.979 66.9688 129.406 65.4154 129.815 63.9134C130.509 61.3772 131.297 58.502 130.678 55.3843C130.022 52.0611 128.033 49.5118 126.435 47.4639C125.58 46.369 124.612 45.1278 124.409 44.4127C124.147 43.488 124.317 41.8728 124.48 40.3111C124.756 37.6701 125.068 34.6765 123.901 31.6955C122.599 28.3661 120.035 26.182 117.976 24.4264C116.963 23.5635 115.816 22.5859 115.478 21.9709C114.968 21.0436 114.701 19.4409 114.443 17.8912C114.05 15.5415 113.61 12.9257 112.153 10.609L112.991 10.6127C113.511 10.905 114.05 11.1989 114.609 11.5033C117.038 12.8235 120.057 14.467 121.464 16.1487C121.807 16.6045 122.11 18.4188 122.311 19.6196C122.695 21.9206 123.13 24.5291 124.498 27.0187C125.761 29.3175 127.685 30.9573 129.383 32.4044C130.611 33.4522 132.002 34.6367 132.347 35.5174C132.586 36.1262 132.399 37.9174 132.262 39.225C132.01 41.6507 131.72 44.4022 132.531 47.2638ZM96.4094 11.5012C98.8372 12.8209 101.858 14.4628 103.262 16.1451C103.605 16.6009 103.908 18.4151 104.108 19.6159C104.492 21.9169 104.928 24.5254 106.295 27.015C107.559 29.3139 109.483 30.9537 111.18 32.4007C112.409 33.4485 113.8 34.633 114.145 35.5132C114.383 36.1225 114.197 37.9137 114.06 39.2214C113.807 41.6486 113.519 44.3996 114.327 47.2617C115.089 49.9545 116.729 52.0559 118.177 53.9095C119.138 55.1417 120.229 56.5389 120.402 57.4196C120.54 58.1195 120.08 59.7987 119.711 61.1477C119.061 63.5205 118.326 66.2091 118.697 69.1765C119.055 72.0286 120.406 74.3898 121.599 76.4729C122.363 77.8088 123.23 79.3234 123.282 80.1879C123.328 80.9355 122.65 82.5548 122.106 83.8552C121.154 86.1273 120.076 88.7023 120.076 91.6901C120.076 94.6779 121.154 97.2524 122.106 99.5235C122.651 100.823 123.328 102.441 123.282 103.191C123.23 104.047 122.364 105.56 121.599 106.894C120.407 108.976 119.055 111.336 118.697 114.19C118.326 117.156 119.063 119.848 119.711 122.22C120.08 123.571 120.54 125.252 120.401 125.957C120.229 126.83 119.139 128.228 118.178 129.461C116.733 131.315 115.094 133.418 114.333 136.11C113.525 138.966 113.809 141.715 114.062 144.143C114.198 145.452 114.384 147.246 114.143 147.862C113.799 148.744 112.406 149.931 111.177 150.979C109.481 152.425 107.558 154.065 106.297 156.359C104.928 158.848 104.492 161.458 104.108 163.76C103.908 164.961 103.605 166.775 103.266 167.226C102.613 168.007 100.809 168.531 99.063 169.039C97.146 169.513 95.2998 170.238 93.5736 171.196C91.4303 172.497 89.9267 174.675 88.5996 176.596C88.421 176.858 88.2329 177.125 88.0495 177.387L85.1157 177.397C89.7711 172.477 93.9827 165.921 97.5746 157.887C105.315 140.578 109.577 117.876 109.577 93.9623C109.577 70.0084 105.302 47.2779 97.54 29.9588C93.9455 21.9384 89.7339 15.3969 85.0806 10.489L94.6481 10.5309C95.2097 10.8505 95.7965 11.1712 96.4094 11.5012ZM39.1669 154.554C31.7422 138.457 27.6526 116.939 27.6526 93.9633C27.6526 70.9876 31.7422 49.4705 39.1669 33.3736C45.8985 18.7813 54.7205 10.412 63.3712 10.412C63.6703 10.412 63.9726 10.423 64.2676 10.4445L64.3068 10.4476C72.8244 11.0145 81.4515 19.6887 87.9757 34.2453C95.1479 50.2458 99.097 71.4544 99.097 93.9633C99.097 116.435 95.1589 137.618 88.0071 153.611C81.5002 168.163 72.8894 176.862 64.3467 177.48C64.0428 177.504 63.7243 177.515 63.3722 177.515C54.7205 177.515 45.8985 169.146 39.1669 154.554ZM148.744 154.408C142.195 168.455 133.694 176.708 125.273 177.236C126.897 176.44 128.34 175.318 129.513 173.941C131.664 171.361 132.185 168.24 132.645 165.486C132.904 163.937 133.169 162.335 133.681 161.408C134.019 160.792 135.166 159.814 136.178 158.951C138.236 157.195 140.798 155.01 142.103 151.68C143.271 148.697 142.959 145.702 142.683 143.06C142.52 141.498 142.351 139.884 142.612 138.963C142.815 138.245 143.785 137.002 144.64 135.905C146.238 133.857 148.226 131.309 148.884 127.994C149.502 124.87 148.715 121.994 148.021 119.455C147.61 117.951 147.183 116.396 147.297 115.494C147.394 114.724 148.191 113.331 148.895 112.102C150.165 109.886 151.744 107.125 151.945 103.824C152.136 100.645 150.987 97.9041 149.975 95.4816C149.376 94.0529 148.758 92.5755 148.758 91.6912C148.758 90.8068 149.376 89.3268 149.975 87.8965C150.987 85.4756 152.136 82.7314 151.945 79.5503C151.744 76.2455 150.163 73.4861 148.897 71.269C148.192 70.0388 147.395 68.6437 147.297 67.8636C147.183 66.9614 147.608 65.406 148.02 63.9024C148.713 61.3709 149.498 58.502 148.884 55.3837C148.229 52.0606 146.239 49.5113 144.641 47.4634C143.786 46.3684 142.818 45.1273 142.615 44.4122C142.354 43.4875 142.523 41.8723 142.686 40.3106C142.962 37.6696 143.275 34.676 142.107 31.695C140.805 28.3656 138.241 26.1815 136.182 24.4259C135.169 23.563 134.022 22.5854 133.684 21.9703C133.174 21.043 132.907 19.4404 132.649 17.8907C132.397 15.9172 131.899 13.9829 131.166 12.133C137.643 15.1156 143.885 22.5398 148.926 33.4936C156.291 49.5003 160.347 70.9756 160.347 93.9618C160.347 116.891 156.225 138.357 148.744 154.408Z"/><path fill="#083863" d="M191.596 64.144H200.644L207.024 90.012L213.404 116.228H213.636L220.944 90.012L228.484 64.144H236.72L244.492 90.012L251.916 116.228H252.148L258.296 90.012L264.792 64.144H273.492L257.6 124H246.116L237.764 95.232L232.544 77.02H232.312L227.208 95.232L218.856 124H207.604L191.596 64.144ZM286.899 38.16H296.179V73.888H296.643C298.112 70.4853 300.162 67.7787 302.791 65.768C305.498 63.7573 309.094 62.752 313.579 62.752C319.766 62.752 324.638 64.7627 328.195 68.784C331.83 72.728 333.647 78.3347 333.647 85.604V124H324.367V87.228C324.367 76.4787 319.843 71.104 310.795 71.104C308.939 71.104 307.122 71.336 305.343 71.8C303.642 72.264 302.095 72.96 300.703 73.888C299.311 74.816 298.19 76.0147 297.339 77.484C296.566 78.876 296.179 80.5387 296.179 82.472V124H286.899V38.16ZM375.333 125.392C371.234 125.392 367.522 124.657 364.197 123.188C360.949 121.719 358.126 119.631 355.729 116.924C353.409 114.14 351.591 110.853 350.277 107.064C349.039 103.197 348.421 98.8667 348.421 94.072C348.421 89.3547 349.039 85.0627 350.277 81.196C351.591 77.3293 353.409 74.0427 355.729 71.336C358.126 68.552 360.949 66.4253 364.197 64.956C367.522 63.4867 371.234 62.752 375.333 62.752C379.354 62.752 382.95 63.4867 386.121 64.956C389.291 66.4253 391.998 68.4747 394.241 71.104C396.483 73.656 398.185 76.7107 399.345 80.268C400.582 83.8253 401.201 87.7307 401.201 91.984V96.392H358.165V99.176C358.165 101.728 358.551 104.125 359.325 106.368C360.175 108.533 361.335 110.428 362.805 112.052C364.351 113.676 366.207 114.952 368.373 115.88C370.615 116.808 373.129 117.272 375.913 117.272C379.702 117.272 382.989 116.383 385.773 114.604C388.634 112.825 390.838 110.273 392.385 106.948L398.997 111.704C397.063 115.803 394.047 119.128 389.949 121.68C385.85 124.155 380.978 125.392 375.333 125.392ZM375.333 70.524C372.781 70.524 370.461 70.988 368.373 71.916C366.285 72.7667 364.467 74.004 362.921 75.628C361.451 77.252 360.291 79.1853 359.441 81.428C358.59 83.5933 358.165 85.9907 358.165 88.62V89.432H391.225V88.156C391.225 82.82 389.755 78.5667 386.817 75.396C383.955 72.148 380.127 70.524 375.333 70.524ZM438.997 125.392C434.898 125.392 431.186 124.657 427.861 123.188C424.613 121.719 421.79 119.631 419.393 116.924C417.073 114.14 415.255 110.853 413.941 107.064C412.703 103.197 412.085 98.8667 412.085 94.072C412.085 89.3547 412.703 85.0627 413.941 81.196C415.255 77.3293 417.073 74.0427 419.393 71.336C421.79 68.552 424.613 66.4253 427.861 64.956C431.186 63.4867 434.898 62.752 438.997 62.752C443.018 62.752 446.614 63.4867 449.785 64.956C452.955 66.4253 455.662 68.4747 457.905 71.104C460.147 73.656 461.849 76.7107 463.009 80.268C464.246 83.8253 464.865 87.7307 464.865 91.984V96.392H421.829V99.176C421.829 101.728 422.215 104.125 422.989 106.368C423.839 108.533 424.999 110.428 426.469 112.052C428.015 113.676 429.871 114.952 432.037 115.88C434.279 116.808 436.793 117.272 439.577 117.272C443.366 117.272 446.653 116.383 449.437 114.604C452.298 112.825 454.502 110.273 456.049 106.948L462.661 111.704C460.727 115.803 457.711 119.128 453.613 121.68C449.514 124.155 444.642 125.392 438.997 125.392ZM438.997 70.524C436.445 70.524 434.125 70.988 432.037 71.916C429.949 72.7667 428.131 74.004 426.585 75.628C425.115 77.252 423.955 79.1853 423.105 81.428C422.254 83.5933 421.829 85.9907 421.829 88.62V89.432H454.889V88.156C454.889 82.82 453.419 78.5667 450.481 75.396C447.619 72.148 443.791 70.524 438.997 70.524ZM490.017 124C486.769 124 484.294 123.111 482.593 121.332C480.969 119.476 480.157 117.156 480.157 114.372V38.16H489.437V115.88H498.253V124H490.017ZM518.811 125.392C516.336 125.392 514.519 124.773 513.359 123.536C512.276 122.299 511.735 120.675 511.735 118.664V117.156C511.735 115.145 512.276 113.521 513.359 112.284C514.519 111.047 516.336 110.428 518.811 110.428C521.286 110.428 523.064 111.047 524.147 112.284C525.307 113.521 525.887 115.145 525.887 117.156V118.664C525.887 120.675 525.307 122.299 524.147 123.536C523.064 124.773 521.286 125.392 518.811 125.392ZM544.501 64.144H553.781V133.28C553.781 137.456 552.737 140.82 550.649 143.372C548.561 145.924 545.274 147.2 540.789 147.2H534.757V139.08H544.501V64.144ZM549.141 50.108C547.13 50.108 545.661 49.644 544.733 48.716C543.882 47.7107 543.457 46.4347 543.457 44.888V43.38C543.457 41.8333 543.882 40.596 544.733 39.668C545.661 38.6627 547.13 38.16 549.141 38.16C551.151 38.16 552.582 38.6627 553.433 39.668C554.361 40.596 554.825 41.8333 554.825 43.38V44.888C554.825 46.4347 554.361 47.7107 553.433 48.716C552.582 49.644 551.151 50.108 549.141 50.108ZM591.481 125.392C585.913 125.392 581.234 124.348 577.445 122.26C573.733 120.095 570.523 117.233 567.817 113.676L574.429 108.34C576.749 111.279 579.339 113.56 582.201 115.184C585.062 116.731 588.387 117.504 592.177 117.504C596.121 117.504 599.175 116.653 601.341 114.952C603.583 113.251 604.705 110.853 604.705 107.76C604.705 105.44 603.931 103.468 602.385 101.844C600.915 100.143 598.209 98.9827 594.265 98.364L589.509 97.668C586.725 97.2813 584.173 96.7013 581.853 95.928C579.533 95.0773 577.483 93.9947 575.705 92.68C574.003 91.288 572.65 89.5867 571.645 87.576C570.717 85.5653 570.253 83.168 570.253 80.384C570.253 77.4453 570.794 74.8933 571.877 72.728C572.959 70.4853 574.429 68.6293 576.285 67.16C578.218 65.6907 580.499 64.608 583.129 63.912C585.758 63.1387 588.581 62.752 591.597 62.752C596.469 62.752 600.529 63.6027 603.777 65.304C607.102 67.0053 610.002 69.364 612.477 72.38L606.329 77.948C605.014 76.092 603.081 74.4293 600.529 72.96C597.977 71.4133 594.767 70.64 590.901 70.64C587.034 70.64 584.095 71.4907 582.085 73.192C580.151 74.816 579.185 77.0587 579.185 79.92C579.185 82.8587 580.151 84.9853 582.085 86.3C584.095 87.6147 586.957 88.5813 590.669 89.2L595.309 89.896C601.959 90.9013 606.677 92.8347 609.461 95.696C612.245 98.48 613.637 102.153 613.637 106.716C613.637 112.516 611.665 117.079 607.721 120.404C603.777 123.729 598.363 125.392 591.481 125.392Z"/></svg>